<?xml version="1.0" standalone="no"?>
<!DOCTYPE svg PUBLIC "-//W3C//DTD SVG 20010904//EN"
 "http://www.w3.org/TR/2001/REC-SVG-20010904/DTD/svg10.dtd">
<svg version="1.0" xmlns="http://www.w3.org/2000/svg"
 width="3264.000000pt" height="3264.000000pt" viewBox="0 0 3264.000000 3264.000000"
 preserveAspectRatio="xMidYMid meet">

<g transform="translate(0.000000,3264.000000) scale(0.100000,-0.100000)"
fill="#000000" stroke="none">
<path d="M16401 31926 c-18 -22 -5 -52 39 -87 21 -17 41 -42 45 -56 4 -16 462
-482 1212 -1232 663 -663 1216 -1222 1228 -1241 37 -56 66 -85 127 -129 32
-23 75 -65 97 -94 22 -28 62 -68 89 -88 49 -37 163 -186 188 -246 19 -43 18
-63 -6 -130 -16 -47 -20 -83 -20 -198 0 -125 -3 -150 -25 -216 -24 -68 -26
-87 -24 -234 1 -143 -1 -165 -20 -205 -17 -38 -21 -65 -21 -166 0 -102 -4
-132 -25 -194 -23 -66 -25 -89 -25 -235 0 -136 -3 -171 -20 -220 -16 -45 -20
-84 -20 -175 0 -100 -3 -125 -25 -180 -22 -55 -25 -80 -25 -180 0 -91 -4 -130
-20 -175 -17 -49 -20 -84 -20 -216 0 -139 -3 -167 -24 -231 -21 -65 -23 -87
-19 -198 4 -115 2 -130 -21 -193 -15 -38 -26 -88 -26 -115 0 -27 -11 -82 -25
-122 -24 -70 -25 -85 -25 -292 0 -244 -5 -270 -73 -363 -56 -78 -121 -116
-292 -170 -82 -26 -162 -56 -177 -66 -14 -11 -30 -19 -35 -19 -4 0 -28 -11
-53 -24 -25 -13 -76 -34 -115 -46 -38 -13 -111 -44 -161 -71 -50 -26 -120 -55
-155 -64 -35 -9 -74 -23 -85 -30 -56 -36 -157 -84 -220 -105 -38 -13 -109 -44
-159 -71 -49 -26 -113 -54 -141 -62 -27 -8 -84 -31 -125 -50 -42 -19 -98 -42
-125 -50 -42 -13 -178 -76 -294 -136 -19 -10 -72 -31 -117 -46 -46 -14 -85
-30 -88 -35 -3 -5 -69 -30 -148 -55 -80 -27 -164 -62 -192 -80 -27 -19 -101
-50 -163 -69 -61 -20 -154 -58 -205 -84 -50 -27 -113 -54 -140 -61 -57 -16
-101 -62 -112 -117 -7 -42 -31 -94 -43 -94 -4 0 -25 21 -48 48 -23 26 -76 68
-120 94 -112 66 -233 128 -251 128 -8 0 -41 16 -74 35 -32 19 -78 39 -101 46
-24 6 -54 17 -68 25 -39 21 -142 61 -177 69 -18 3 -35 11 -39 16 -10 16 -97
56 -139 63 -37 7 -113 37 -175 70 -14 7 -43 19 -65 26 -39 12 -91 35 -241 106
-39 19 -77 34 -83 34 -7 0 -38 12 -69 26 -31 14 -75 34 -97 44 -22 10 -79 36
-128 59 -48 23 -93 41 -100 41 -6 0 -53 20 -104 45 -51 24 -110 49 -132 55
-22 6 -43 15 -46 20 -3 4 -22 14 -43 21 -20 7 -73 29 -117 49 -151 71 -270
119 -310 125 -22 4 -61 20 -86 36 -25 16 -70 38 -100 48 -155 55 -193 76 -260
141 -56 55 -70 76 -92 140 -29 82 -48 185 -46 252 1 46 -20 209 -51 398 -34
203 -79 590 -89 770 -6 97 -30 313 -55 485 -50 349 -72 534 -81 680 -4 55 -22
210 -40 345 -19 135 -39 306 -45 380 -6 74 -17 187 -25 250 -8 63 -22 190 -30
283 -14 148 -14 175 0 239 8 40 29 96 47 127 23 39 178 202 504 531 259 261
517 529 574 595 57 66 338 357 625 646 523 528 666 684 717 782 32 61 33 70
12 91 -23 23 -52 20 -171 -19 -59 -19 -109 -33 -111 -31 -12 13 90 144 218
281 95 102 106 115 114 143 12 38 -41 28 -115 -21 -35 -24 -108 -64 -161 -90
-54 -26 -112 -60 -130 -76 -19 -16 -108 -66 -200 -110 -91 -45 -190 -100 -219
-122 -30 -22 -78 -51 -109 -66 -30 -14 -83 -45 -117 -68 -34 -24 -101 -63
-149 -86 -47 -23 -114 -61 -148 -84 -34 -24 -104 -64 -156 -90 -52 -26 -122
-66 -155 -88 -33 -22 -87 -54 -120 -72 -33 -18 -99 -56 -147 -86 -186 -115
-251 -151 -323 -176 -27 -10 -123 -66 -213 -125 -89 -59 -165 -108 -169 -108
-15 0 -149 -74 -218 -121 -40 -27 -84 -53 -97 -58 -14 -5 -60 -32 -102 -60
-43 -28 -157 -90 -254 -137 -100 -50 -234 -127 -311 -179 -75 -50 -194 -120
-266 -155 -71 -35 -164 -87 -205 -115 -41 -28 -100 -63 -130 -78 -77 -37 -169
-112 -186 -152 -11 -26 -13 -110 -13 -406 0 -353 -1 -377 -20 -433 -20 -57
-21 -80 -21 -531 l0 -472 -26 -73 -26 -74 3 -426 c3 -417 2 -426 -19 -478 -22
-52 -22 -61 -22 -576 l0 -522 -25 -74 -25 -74 0 -405 1 -406 -33 -64 c-43 -85
-139 -181 -221 -221 -34 -16 -81 -42 -103 -57 -23 -16 -94 -63 -157 -105 -64
-43 -122 -78 -129 -78 -14 0 -83 -44 -303 -195 -55 -38 -134 -86 -175 -108
-41 -22 -91 -52 -110 -67 -19 -15 -59 -40 -89 -54 -29 -15 -106 -62 -170 -105
-347 -232 -469 -311 -494 -320 -15 -6 -60 -33 -100 -59 -39 -27 -97 -62 -127
-77 -30 -15 -80 -45 -110 -67 -93 -67 -312 -208 -365 -235 -27 -14 -83 -48
-122 -75 -40 -26 -84 -53 -99 -58 -14 -6 -45 -23 -68 -39 -22 -16 -169 -114
-325 -217 -156 -104 -293 -195 -305 -203 -97 -66 -143 -92 -185 -106 -27 -9
-69 -33 -93 -54 -24 -21 -124 -92 -223 -158 -99 -67 -189 -131 -200 -143 -20
-22 -20 -36 -20 -2464 l0 -2441 25 0 c22 0 26 5 31 45 4 25 16 70 28 100 12
30 21 65 21 77 0 12 21 75 46 140 44 112 58 156 69 214 2 14 18 45 35 70 16
24 30 54 30 66 0 26 19 78 25 71 3 -3 12 -72 20 -154 16 -164 35 -242 66 -270
18 -17 23 -17 46 -4 60 34 118 184 254 660 50 173 101 358 114 410 42 171 126
472 181 648 30 95 72 244 94 330 123 490 279 1042 316 1119 64 135 160 216
389 328 135 66 708 315 726 315 5 0 15 -11 21 -25 6 -14 15 -25 19 -25 21 0
338 144 333 151 -3 5 -23 9 -44 9 -21 0 -41 3 -43 8 -3 4 84 45 192 91 108 46
312 135 455 198 349 154 1056 457 1296 554 107 44 258 107 336 139 77 33 154
63 171 66 41 8 153 -37 223 -90 30 -23 73 -53 95 -66 22 -14 60 -43 85 -66 25
-23 65 -54 90 -69 25 -15 72 -53 105 -85 33 -32 152 -120 264 -194 118 -79
228 -161 262 -194 31 -32 83 -76 116 -98 32 -21 83 -60 114 -85 30 -25 73 -56
95 -69 21 -13 55 -37 74 -55 19 -17 60 -47 90 -65 30 -18 78 -54 105 -80 28
-26 82 -69 120 -95 39 -26 84 -60 100 -75 27 -26 64 -52 210 -150 28 -18 75
-57 105 -86 30 -29 80 -67 110 -86 88 -52 168 -109 229 -162 60 -52 106 -76
145 -76 15 0 30 -8 36 -20 7 -14 21 -20 44 -20 19 0 54 -11 77 -25 24 -13 76
-32 116 -41 81 -18 97 -36 53 -59 -41 -21 -125 -109 -146 -153 -12 -25 -19
-68 -22 -132 -3 -83 0 -103 22 -163 22 -58 26 -83 26 -180 0 -87 5 -126 20
-170 15 -41 20 -82 20 -153 0 -78 5 -110 25 -166 21 -59 25 -86 25 -188 0 -89
5 -131 19 -172 46 -133 51 -157 51 -254 0 -59 6 -119 15 -148 19 -63 19 -111
-1 -169 -25 -74 -34 -76 -104 -20 -59 49 -158 110 -275 173 -91 49 -228 123
-250 137 -11 7 -31 18 -45 25 -14 7 -56 31 -95 54 -64 38 -302 168 -400 218
-23 12 -126 68 -230 126 -156 87 -201 117 -261 175 -55 54 -76 83 -93 128 -45
123 -51 375 -15 652 20 153 31 973 15 1113 -11 105 -41 181 -97 249 -69 84
-726 588 -840 644 -43 21 -88 34 -132 39 -51 5 -89 18 -162 55 -52 26 -112 63
-132 81 -49 44 -95 66 -119 59 -36 -12 -43 -43 -44 -215 -1 -144 -3 -172 -23
-224 -19 -51 -22 -79 -22 -206 0 -119 -3 -150 -15 -160 -26 -22 -20 -166 10
-246 25 -65 25 -71 25 -364 0 -281 -1 -300 -22 -356 -20 -54 -22 -81 -25 -300
-3 -235 -2 -244 22 -318 22 -69 25 -93 25 -236 0 -136 -3 -169 -21 -220 -19
-56 -21 -84 -22 -383 l-2 -322 24 -32 c15 -20 70 -58 143 -98 119 -66 147 -84
228 -144 25 -18 63 -41 85 -51 22 -9 69 -37 105 -62 36 -24 101 -63 145 -87
44 -24 94 -55 110 -69 17 -14 53 -36 80 -49 56 -26 71 -34 135 -80 41 -28 97
-59 298 -163 40 -21 88 -50 108 -65 54 -41 231 -126 248 -119 9 4 35 -8 63
-29 27 -19 90 -55 142 -81 84 -42 207 -116 315 -190 21 -14 62 -34 91 -45 30
-11 76 -36 103 -56 27 -19 88 -53 135 -75 88 -41 204 -120 213 -145 3 -8 38
-30 77 -50 96 -48 155 -83 212 -124 38 -27 58 -34 108 -38 34 -2 86 -11 116
-20 36 -10 77 -14 127 -11 80 5 84 3 84 -56 0 -27 -12 -47 -61 -100 -34 -37
-89 -86 -123 -108 -34 -23 -85 -65 -114 -95 -28 -29 -69 -62 -90 -73 -20 -11
-55 -33 -77 -49 -22 -16 -87 -59 -143 -97 -57 -38 -110 -80 -117 -94 -27 -50
-152 -160 -270 -236 -66 -42 -141 -96 -168 -120 -26 -23 -72 -56 -102 -73 -31
-18 -58 -38 -62 -46 -3 -8 -76 -62 -162 -119 -86 -57 -163 -112 -171 -121 -8
-9 -39 -33 -70 -52 -30 -19 -82 -61 -115 -93 -33 -32 -80 -70 -105 -85 -25
-15 -61 -42 -80 -60 -19 -18 -62 -50 -95 -70 -33 -21 -79 -55 -101 -76 -23
-20 -61 -50 -85 -65 -24 -15 -65 -45 -90 -68 -26 -23 -68 -54 -95 -71 -27 -16
-67 -46 -89 -66 -22 -20 -60 -49 -85 -64 -25 -15 -58 -40 -75 -55 -35 -33
-179 -133 -247 -173 -25 -15 -64 -44 -87 -66 -22 -21 -65 -53 -95 -69 -30 -17
-70 -45 -89 -62 -46 -40 -184 -103 -222 -101 -16 1 -48 8 -70 16 -22 7 -80 26
-130 40 -49 15 -106 33 -125 40 -20 7 -62 16 -95 20 -56 6 -184 40 -265 70
-20 7 -62 16 -95 20 -33 5 -112 25 -176 45 -64 21 -136 41 -160 45 -41 6 -77
16 -229 66 -30 10 -80 21 -110 24 -52 6 -182 41 -263 71 -20 8 -47 14 -60 14
-12 0 -58 11 -102 24 -90 27 -180 50 -275 71 -134 29 -232 56 -417 115 -34 11
-80 20 -103 20 -22 0 -66 8 -97 19 -158 52 -191 61 -216 61 -15 0 -55 9 -89
19 -35 11 -90 24 -123 29 -33 5 -103 22 -155 38 -54 16 -115 27 -140 26 -25
-1 -83 7 -130 18 -97 21 -191 40 -237 47 -25 4 -32 1 -38 -16 -3 -11 -4 -25
-1 -30 3 -4 49 -30 102 -56 52 -26 117 -64 142 -84 119 -93 370 -247 434 -266
13 -4 30 -13 38 -20 8 -8 28 -18 44 -24 15 -6 92 -54 171 -105 78 -52 245
-147 370 -211 248 -127 282 -147 335 -193 19 -17 85 -57 145 -88 61 -31 142
-77 180 -103 39 -26 130 -78 203 -114 72 -37 158 -84 190 -106 116 -79 199
-130 292 -178 53 -27 124 -69 159 -93 36 -24 105 -63 155 -88 50 -24 123 -65
161 -91 39 -26 131 -78 205 -115 74 -38 159 -85 190 -106 30 -20 84 -52 119
-69 35 -18 89 -50 120 -70 31 -21 101 -62 156 -90 55 -29 129 -72 165 -96 36
-23 99 -60 140 -81 71 -37 80 -39 165 -39 66 0 108 -6 159 -22 148 -49 255
-21 546 142 41 23 141 76 223 119 81 42 191 100 245 130 53 29 189 98 302 154
113 56 322 167 465 247 143 80 479 256 747 390 269 135 552 280 630 323 79 43
217 117 309 164 91 48 226 120 300 160 124 69 227 123 534 283 66 34 146 73
177 86 l58 23 77 -24 c71 -22 188 -70 253 -105 14 -7 118 -60 232 -118 114
-58 222 -117 240 -131 31 -23 264 -144 713 -368 316 -158 357 -180 405 -213
25 -18 151 -85 280 -150 341 -171 511 -259 557 -289 22 -15 64 -36 93 -47 29
-11 72 -33 96 -49 23 -17 149 -84 281 -151 131 -67 261 -137 289 -156 28 -18
76 -41 105 -52 72 -25 268 -123 349 -176 36 -23 128 -72 204 -110 136 -66 141
-68 213 -66 50 1 94 -5 141 -19 79 -25 180 -27 238 -7 53 19 149 68 227 116
34 21 153 88 265 150 111 62 254 143 317 181 63 38 186 108 272 156 185 102
557 318 833 484 107 65 245 144 305 175 148 78 161 85 465 265 146 86 321 188
390 225 69 38 174 100 233 137 60 37 111 68 113 68 3 0 56 34 118 76 180 120
272 213 247 252 -3 6 -33 17 -65 24 -65 14 -81 33 -43 47 14 6 28 14 31 20 8
13 87 66 134 90 21 10 57 37 82 59 38 34 43 43 34 59 -6 10 -21 19 -33 21 -12
2 -101 -22 -199 -54 -97 -31 -206 -60 -242 -65 -36 -4 -121 -25 -189 -48 -68
-22 -128 -38 -132 -35 -5 3 -42 -7 -84 -21 -41 -14 -86 -25 -98 -25 -13 0 -48
-9 -79 -20 -114 -40 -231 -70 -273 -70 -24 0 -65 -10 -92 -21 -26 -12 -82 -25
-124 -29 -54 -5 -94 -16 -140 -38 -35 -17 -91 -35 -124 -41 -33 -5 -85 -19
-115 -30 -30 -12 -65 -21 -76 -21 -12 0 -41 -7 -64 -15 -23 -8 -70 -19 -104
-25 -33 -5 -115 -28 -181 -50 -66 -22 -138 -40 -160 -40 -22 0 -76 -11 -120
-25 -44 -14 -89 -25 -101 -25 -11 0 -82 -20 -157 -45 -76 -25 -147 -45 -160
-45 -12 -1 -47 -9 -77 -20 -30 -11 -75 -20 -100 -20 -51 0 -132 -23 -168 -46
-40 -26 -114 -44 -188 -44 -46 0 -99 -9 -155 -25 -72 -22 -91 -24 -132 -15
-70 15 -87 25 -320 199 -117 86 -277 204 -357 261 -80 57 -215 156 -300 220
-152 114 -230 171 -380 280 -41 30 -124 94 -185 141 -60 47 -198 149 -305 226
-107 77 -261 192 -342 254 -81 63 -246 188 -367 278 l-220 164 20 25 c11 14
16 29 12 32 -4 4 -71 54 -148 111 -234 173 -302 257 -312 392 -7 86 9 115 91
161 35 20 69 36 75 36 6 0 18 -18 27 -40 18 -45 72 -96 110 -106 14 -4 54 -4
87 -1 53 5 89 19 247 100 102 52 239 126 305 164 115 66 121 71 150 127 29 56
36 63 150 131 66 39 190 109 275 155 85 46 211 117 279 158 117 70 125 74 138
57 7 -11 13 -22 13 -27 0 -4 3 -8 8 -8 4 0 95 52 202 116 107 65 292 167 410
229 118 61 288 156 378 211 89 54 196 119 238 143 153 88 214 155 257 281 l22
65 3 1362 3 1362 -33 9 -33 8 -7 230 c-3 126 -10 245 -16 264 -31 119 -102
161 -212 125 -49 -16 -52 -16 -65 1 -21 28 -35 82 -35 139 0 28 -5 67 -11 88
-5 21 -7 46 -4 57 8 25 173 135 225 151 48 15 156 0 235 -33 28 -11 86 -33
129 -49 44 -17 92 -39 109 -51 16 -11 55 -29 87 -39 32 -10 85 -31 117 -47 32
-16 83 -37 113 -47 30 -10 80 -30 110 -45 30 -15 80 -35 110 -45 30 -10 134
-56 230 -103 96 -46 206 -95 244 -109 38 -13 94 -37 125 -52 31 -16 83 -37
116 -49 55 -19 280 -122 385 -176 25 -13 70 -31 100 -41 30 -10 80 -30 110
-45 31 -16 83 -37 115 -48 99 -33 179 -73 164 -83 -7 -4 -11 -10 -9 -12 16
-14 136 -67 163 -72 17 -4 73 -26 122 -50 159 -76 181 -85 200 -85 10 0 42
-16 72 -36 30 -20 76 -42 102 -49 26 -7 58 -19 72 -28 13 -8 40 -18 59 -22 19
-4 51 -16 70 -26 19 -10 64 -32 100 -48 36 -16 95 -55 133 -85 54 -46 73 -69
97 -123 32 -69 45 -113 55 -175 3 -21 17 -50 30 -64 14 -15 27 -43 30 -63 10
-64 13 -74 54 -190 23 -62 41 -125 41 -141 0 -15 20 -87 45 -161 25 -74 45
-143 45 -155 0 -11 9 -47 20 -80 11 -32 22 -88 25 -124 4 -67 26 -143 49 -170
16 -18 46 -106 46 -135 0 -11 20 -81 45 -155 25 -74 45 -144 45 -155 0 -11 16
-67 35 -123 19 -57 39 -131 45 -165 5 -34 19 -86 30 -115 11 -29 20 -74 20
-100 0 -30 17 -101 45 -188 25 -76 45 -148 45 -159 0 -11 29 -107 65 -214 42
-126 65 -210 65 -239 0 -28 18 -98 45 -179 25 -73 45 -143 45 -156 0 -13 9
-50 21 -83 11 -32 24 -81 27 -109 5 -33 12 -51 22 -52 38 -7 41 8 50 253 6
131 14 266 20 298 13 81 30 128 43 123 6 -2 27 -46 47 -98 60 -158 95 -209
140 -209 25 0 49 57 68 159 16 89 17 243 17 2121 0 1941 -1 2027 -18 2080 -48
141 -165 248 -467 427 -153 91 -396 244 -695 436 -172 111 -304 194 -445 279
-166 101 -611 382 -928 585 -130 84 -308 196 -395 250 -171 107 -531 334 -849
537 -360 229 -442 308 -503 481 -15 42 -19 105 -26 395 -5 221 -13 388 -24
465 -11 84 -19 255 -25 565 -5 245 -14 470 -20 500 -6 30 -15 269 -19 530 -7
338 -14 511 -26 600 -10 83 -19 262 -25 530 -5 223 -14 425 -20 450 -6 25 -15
207 -19 405 -6 229 -13 375 -21 400 -38 124 -106 195 -282 293 -62 35 -129 73
-148 84 -19 11 -69 40 -110 63 -266 148 -853 487 -1120 645 -173 103 -376 221
-450 262 -202 112 -274 154 -400 231 -154 94 -353 209 -840 485 -305 172 -598
322 -630 322 -6 0 -36 14 -67 32 -31 17 -124 59 -208 93 -83 33 -180 78 -215
100 -36 22 -117 66 -180 99 -112 57 -132 73 -193 159 -12 17 -14 17 -26 3z
m-406 -9826 c55 -17 123 -39 150 -48 44 -14 131 -16 691 -19 610 -4 642 -5
658 -22 29 -32 18 -108 -28 -196 -8 -17 -34 -69 -56 -118 -23 -48 -52 -99 -64
-115 -13 -15 -38 -52 -57 -82 -18 -30 -43 -68 -56 -83 -13 -16 -39 -63 -59
-105 -20 -43 -40 -85 -45 -94 -59 -113 -84 -158 -104 -184 -13 -17 -51 -83
-85 -148 -33 -65 -79 -143 -101 -172 -22 -30 -48 -74 -59 -99 -10 -24 -39 -74
-64 -112 -25 -37 -46 -75 -46 -83 0 -22 55 -77 124 -125 31 -22 75 -56 95 -75
109 -100 160 -134 351 -233 63 -32 131 -72 151 -88 47 -37 80 -49 135 -49 27
0 69 -11 107 -27 55 -24 75 -28 167 -28 99 0 108 2 163 32 63 34 179 114 262
180 45 36 55 50 65 92 l12 50 241 182 c133 100 248 183 254 186 7 3 17 -7 23
-21 5 -14 12 -26 15 -26 3 0 51 33 108 74 56 41 105 72 110 69 24 -14 39 -73
43 -171 4 -75 13 -129 30 -180 22 -68 24 -86 24 -291 0 -136 4 -222 10 -226 6
-4 10 -174 10 -476 0 -387 -3 -476 -14 -504 -8 -19 -47 -69 -87 -110 -63 -65
-89 -83 -193 -136 -67 -33 -150 -76 -186 -94 -36 -18 -121 -61 -190 -95 -69
-35 -152 -82 -185 -105 -33 -23 -118 -70 -190 -105 -71 -35 -159 -83 -194
-107 -36 -24 -75 -43 -90 -43 -15 0 -58 -16 -97 -35 -120 -61 -239 -91 -239
-60 0 6 4 70 8 144 l8 134 -32 33 -32 33 32 248 c45 360 40 337 81 343 l35 5
22 150 c12 83 25 204 29 270 15 269 -49 355 -416 560 -58 32 -120 67 -139 77
-95 53 -154 70 -263 74 -110 5 -192 25 -246 62 -40 27 -79 42 -109 42 -43 0
-99 -46 -126 -103 -13 -29 -43 -77 -66 -107 -53 -71 -81 -129 -86 -179 -5 -48
-59 -146 -177 -321 -46 -69 -113 -183 -148 -255 -69 -141 -116 -215 -137 -215
-22 0 -73 -53 -101 -105 -15 -27 -33 -50 -41 -50 -15 0 -37 34 -113 175 -25
47 -108 191 -186 320 -77 129 -171 292 -209 361 -90 162 -139 234 -197 287
-73 68 -124 86 -235 87 l-93 0 -54 60 c-29 33 -54 68 -54 77 0 10 22 45 48 78
56 69 72 113 72 196 -1 69 -19 114 -105 267 l-60 107 -40 0 c-46 0 -35 -16
-187 260 -45 80 -134 234 -200 342 -189 314 -232 418 -209 504 15 57 43 89
104 118 78 38 209 58 417 63 136 4 220 1 317 -11 158 -19 680 -23 765 -5 69
14 130 50 169 99 l31 39 157 -4 c140 -4 166 -7 256 -35z"/>
<path d="M15393 26625 c-18 -7 -51 -31 -75 -53 -66 -59 -231 -163 -353 -221
-60 -29 -151 -79 -202 -112 -50 -32 -103 -63 -117 -69 -15 -5 -51 -28 -82 -51
-30 -22 -109 -68 -175 -101 -66 -33 -132 -70 -147 -82 -36 -30 -96 -66 -155
-93 -26 -12 -75 -42 -110 -66 -34 -25 -102 -65 -152 -90 -49 -25 -115 -62
-145 -82 -30 -20 -77 -49 -105 -62 -27 -14 -87 -50 -132 -79 -44 -30 -84 -54
-87 -54 -28 0 -349 -175 -461 -251 -77 -53 -179 -113 -226 -136 -47 -22 -106
-56 -131 -75 -31 -24 -65 -39 -107 -47 -61 -12 -131 -57 -131 -85 0 -29 57
-65 134 -86 44 -11 91 -29 105 -39 14 -10 40 -25 56 -33 17 -9 71 -39 120 -67
50 -28 106 -56 125 -62 19 -6 88 -38 153 -70 64 -32 143 -65 174 -74 30 -9 65
-23 77 -30 12 -8 59 -28 106 -45 47 -17 119 -47 160 -67 143 -67 169 -75 231
-68 43 5 75 1 135 -15 185 -52 270 -27 563 164 73 48 203 128 290 178 185 108
392 233 569 342 343 213 320 201 382 200 61 -1 157 -44 251 -111 26 -18 64
-40 85 -49 22 -9 105 -60 185 -114 80 -53 208 -129 285 -168 76 -39 191 -106
254 -148 63 -42 149 -95 190 -116 41 -22 90 -52 110 -68 78 -62 118 -75 213
-72 74 2 99 -2 162 -24 65 -23 86 -26 162 -22 72 4 107 12 193 45 257 100 684
284 830 358 133 68 178 142 136 224 -17 32 -78 89 -133 124 -74 48 -429 255
-518 302 -49 27 -108 60 -130 75 -22 15 -68 41 -102 58 -34 17 -99 55 -145 85
-117 76 -171 109 -263 160 -44 24 -152 86 -240 137 -351 205 -677 392 -805
463 -74 42 -198 114 -275 161 -168 102 -252 146 -282 146 -44 0 -210 60 -253
91 -81 59 -135 71 -197 44z"/>
<path d="M9875 11756 c-485 -72 -785 -258 -935 -578 -80 -171 -90 -285 -97
-1113 -10 -1270 18 -1540 192 -1810 28 -44 66 -108 85 -143 68 -129 212 -257
372 -332 200 -93 369 -120 761 -120 428 0 601 40 831 194 80 53 207 173 247
231 113 167 152 344 170 780 20 458 8 546 -76 589 -38 20 -58 21 -489 24 -306
2 -471 -1 -515 -8 -36 -7 -93 -14 -127 -17 l-61 -5 -14 33 c-19 47 -20 291 0
337 21 51 38 54 126 26 l78 -25 486 3 c468 3 487 4 521 23 19 12 43 36 55 55
19 33 20 53 21 330 4 813 -58 1062 -321 1283 -137 115 -279 182 -475 224 -106
23 -140 25 -430 29 -227 2 -340 -1 -405 -10z"/>
<path d="M24620 11764 c-400 -45 -646 -143 -812 -323 -91 -98 -138 -199 -173
-371 -21 -102 -31 -457 -16 -581 21 -181 83 -349 189 -516 28 -43 70 -109 94
-146 54 -86 130 -161 278 -274 121 -94 162 -139 153 -174 -10 -39 -62 -49
-276 -58 -111 -5 -215 -14 -232 -19 -16 -6 -65 -14 -109 -17 l-78 -7 5 -276
c6 -382 38 -555 128 -702 73 -118 108 -174 141 -228 97 -157 315 -302 545
-362 168 -44 278 -53 593 -47 325 5 399 16 577 78 111 39 169 69 261 132 173
119 256 269 293 527 16 113 16 701 0 835 -27 227 -90 407 -185 532 -63 83
-164 176 -322 293 -137 103 -197 162 -192 187 2 9 16 25 31 37 26 19 45 21
255 26 262 6 290 14 326 85 27 52 32 209 17 480 -19 349 -62 480 -199 614 -94
92 -195 151 -346 203 -185 62 -242 69 -596 73 -173 2 -331 1 -350 -1z"/>
<path d="M21310 11689 c-363 -3 -548 -9 -575 -17 -22 -6 -65 -12 -96 -12 -33
0 -61 -5 -66 -12 -5 -7 -15 -58 -22 -113 -7 -55 -23 -179 -37 -275 -13 -96
-42 -312 -63 -480 -49 -376 -143 -1083 -176 -1325 -13 -99 -34 -254 -45 -345
-11 -91 -34 -262 -50 -380 -57 -412 -99 -753 -94 -762 3 -4 26 -8 52 -8 26 0
52 -4 58 -8 6 -4 14 -31 17 -60 8 -70 33 -112 82 -137 38 -19 60 -20 540 -20
549 0 551 0 603 60 28 31 40 68 58 170 6 37 7 38 17 18 7 -17 19 -23 41 -23
64 0 74 -8 86 -65 14 -70 45 -115 95 -140 38 -19 60 -20 540 -20 480 0 502 1
540 20 98 49 102 144 31 620 -62 409 -224 1498 -331 2215 -160 1076 -148 1015
-206 1065 -16 13 -48 26 -72 29 -70 10 -364 11 -927 5z"/>
<path d="M27730 11689 c-256 -3 -409 -9 -435 -17 -22 -6 -67 -12 -100 -12 -33
0 -66 -4 -73 -8 -10 -7 -12 -383 -10 -1848 l3 -1839 40 -3 c80 -5 85 -8 85
-55 0 -63 36 -128 85 -152 38 -19 59 -20 510 -19 259 1 553 1 655 1 1099 -3
1103 -3 1139 18 19 11 43 33 55 48 l21 28 0 1884 0 1884 -21 28 c-47 64 -36
63 -610 61 -460 -2 -654 -1 -884 5 -36 1 -243 -1 -460 -4z"/>
<path d="M2780 11675 c-25 -8 -82 -17 -128 -21 l-82 -7 2 -361 3 -361 40 -3
c81 -5 85 -8 85 -60 1 -64 30 -126 72 -148 26 -14 67 -19 193 -24 l159 -5 7
-25 c4 -14 7 -624 8 -1356 l1 -1331 63 -9 62 -9 6 -63 c7 -71 27 -106 80 -137
33 -19 52 -20 519 -20 537 0 540 0 588 63 l27 35 5 1376 c5 1326 6 1377 24
1407 36 60 63 68 256 74 196 6 231 16 265 73 19 30 20 55 23 417 3 384 3 385
-20 430 -44 86 47 80 -1153 79 -880 0 -1068 -3 -1105 -14z"/>
<path d="M6127 11675 c-20 -8 -75 -17 -122 -21 l-85 -7 0 -1837 0 -1837 63 -9
62 -9 6 -55 c12 -109 47 -146 157 -161 43 -6 377 -9 859 -7 778 3 789 3 828
24 80 42 80 42 83 447 3 383 -2 449 -41 484 -49 45 -63 47 -319 53 -231 5
-248 6 -275 26 -60 45 -68 73 -68 244 0 137 2 160 21 194 36 69 70 79 279 84
197 4 231 12 269 65 20 27 21 43 24 405 3 416 2 420 -61 466 -26 19 -47 22
-221 27 -223 7 -255 16 -290 84 -30 58 -30 224 -1 274 43 73 52 75 293 81 247
6 270 12 307 85 19 38 20 60 20 415 0 355 -1 377 -20 414 -11 22 -33 49 -48
60 -28 21 -37 21 -855 23 -684 1 -833 -1 -865 -12z"/>
<path d="M12670 11675 c-25 -8 -82 -17 -127 -21 l-83 -7 0 -1837 0 -1837 63
-9 62 -9 7 -59 c10 -75 34 -116 83 -141 38 -19 59 -20 515 -19 261 1 558 1
660 1 1010 -4 1083 -3 1124 18 22 11 49 33 60 48 l21 28 3 1872 c2 1767 1
1874 -15 1906 -10 19 -31 44 -46 55 -28 21 -33 21 -1155 23 -937 1 -1135 -1
-1172 -12z"/>
<path d="M16295 11674 c-27 -7 -85 -17 -127 -20 l-78 -7 0 -1838 0 -1838 55
-6 c30 -4 58 -12 63 -19 5 -6 12 -35 14 -64 6 -61 29 -97 79 -127 33 -19 53
-20 524 -20 468 0 492 1 530 20 28 14 47 33 63 65 l22 44 0 1851 c0 1794 -1
1851 -19 1892 -37 81 -11 78 -576 80 -404 1 -510 -1 -550 -13z"/>
</g>
</svg>
