<?xml version="1.0" standalone="no"?>
<!DOCTYPE svg PUBLIC "-//W3C//DTD SVG 20010904//EN"
 "http://www.w3.org/TR/2001/REC-SVG-20010904/DTD/svg10.dtd">
<svg version="1.0" xmlns="http://www.w3.org/2000/svg"
 width="184.000000pt" height="184.000000pt" viewBox="0 0 184.000000 184.000000"
 preserveAspectRatio="xMidYMid meet">

<g transform="translate(0.000000,184.000000) scale(0.100000,-0.100000)"
fill="#000000" stroke="none">
<path d="M972 1754 c20 -21 57 -60 81 -86 l43 -47 -13 -118 c-7 -64 -17 -120
-21 -124 -4 -3 -47 -23 -95 -43 l-88 -38 -57 23 c-31 12 -73 30 -93 40 l-37
18 -12 116 c-14 132 -22 110 83 221 27 29 45 54 39 58 -5 3 -61 -23 -124 -59
l-115 -65 -7 -142 c-4 -78 -9 -145 -11 -149 -3 -3 -57 -39 -120 -78 l-115 -72
0 -128 c0 -103 3 -128 14 -128 9 0 22 29 36 82 12 45 25 87 29 93 7 12 210
104 220 100 4 -2 41 -28 83 -58 l75 -55 5 -55 c3 -30 4 -57 2 -59 -1 -2 -22 8
-46 21 -42 23 -43 24 -48 85 -4 52 -9 65 -33 83 -47 37 -57 23 -57 -82 l0 -93
43 -26 c23 -14 58 -33 78 -43 54 -28 75 -46 63 -54 -5 -4 -47 -36 -93 -71
l-83 -63 -86 21 c-48 12 -96 24 -107 27 -18 6 -18 4 -5 -9 23 -22 212 -127
230 -127 8 0 67 27 130 60 63 33 120 60 126 60 5 0 62 -27 125 -60 63 -33 121
-60 129 -60 30 0 238 126 226 137 -2 2 -49 -8 -105 -22 l-102 -26 -86 64 c-82
59 -108 87 -84 87 6 0 49 21 96 47 l85 47 0 97 c0 54 -4 101 -10 104 -15 9
-12 25 5 25 22 0 201 -85 210 -99 4 -7 17 -49 29 -94 34 -131 56 -112 56 54 0
61 -4 101 -12 110 -7 9 -56 42 -108 74 -132 81 -130 79 -130 140 0 29 -3 93
-6 142 l-7 91 -121 68 c-67 37 -125 70 -131 72 -5 3 7 -13 27 -34z m-20 -514
l40 0 -27 -46 c-25 -43 -26 -46 -9 -59 17 -12 17 -13 -6 -8 -21 4 -28 -1 -43
-31 -9 -20 -20 -36 -24 -36 -5 0 -17 15 -28 32 -52 83 -74 124 -75 135 0 11
87 23 118 16 8 -2 32 -3 54 -3z m128 -140 c0 -48 -2 -50 -40 -70 -21 -11 -42
-20 -46 -20 -4 0 -4 20 -1 43 4 28 2 48 -5 55 -9 9 -7 12 8 12 10 0 30 9 44
19 13 11 28 17 32 15 4 -3 8 -27 8 -54z"/>
<path d="M791 1455 c-41 -24 -78 -48 -83 -53 -6 -6 8 -16 36 -27 l45 -17 47
27 48 28 48 -27 c51 -29 76 -29 112 -3 17 13 12 18 -71 65 -50 29 -94 52 -99
51 -5 0 -42 -20 -83 -44z"/>
<path d="M150 635 c0 -14 7 -28 15 -31 12 -5 15 -24 15 -85 l0 -79 35 0 35 0
0 79 c0 71 2 79 21 84 15 4 20 12 17 29 -3 21 -9 23 -70 26 -67 3 -68 3 -68
-23z"/>
<path d="M340 551 l0 -111 55 0 c52 0 55 1 55 25 0 18 -5 25 -20 25 -11 0 -20
7 -20 15 0 8 7 15 15 15 10 0 15 10 15 30 0 20 -5 30 -15 30 -22 0 -18 17 6
23 15 4 20 12 17 29 -3 20 -9 23 -55 26 l-53 3 0 -110z"/>
<path d="M516 638 c-29 -41 -17 -179 17 -200 7 -4 27 -8 45 -8 41 0 72 30 72
70 0 28 -3 30 -35 30 -44 0 -46 18 -2 22 28 3 32 7 35 36 5 48 -20 72 -74 72
-33 0 -46 -5 -58 -22z"/>
<path d="M710 550 l0 -110 70 0 70 0 0 110 0 110 -70 0 -70 0 0 -110z"/>
<path d="M910 550 l0 -110 35 0 35 0 0 110 0 110 -35 0 -35 0 0 -110z"/>
<path d="M1151 585 c-6 -42 -11 -91 -11 -110 l0 -34 75 0 c85 0 82 -5 65 95
-6 32 -13 74 -16 92 -5 31 -6 32 -53 32 l-49 0 -11 -75z"/>
<path d="M1346 644 c-22 -21 -20 -56 4 -87 l20 -26 -21 -6 c-16 -6 -19 -12
-14 -33 13 -58 85 -82 125 -42 26 26 26 70 -1 104 -17 21 -18 26 -5 26 19 0
22 50 4 68 -18 18 -94 15 -112 -4z"/>
<path d="M1532 553 l3 -108 70 0 70 0 0 105 0 105 -73 3 -73 3 3 -108z"/>
</g>
</svg>
